PERFORMER "Eric Prydz"
TITLE "Essential Mix (2007-03-04)"
FILE "01-eric_prydz-essential_mix-sat-03-04-2007.mp3" MP3
  TRACK 01 AUDIO
    PERFORMER "Essential Mix"
    TITLE "Intro"
    INDEX 01 00:00:00
  TRACK 02 AUDIO
    PERFORMER "Unknown Artist vs. Tonja Holma"
    TITLE "Tombax vs. Loco"
    INDEX 01 01:20:28
  TRACK 03 AUDIO
    PERFORMER "Eric Prydz"
    TITLE "Agag"
    INDEX 01 09:18:38
  TRACK 04 AUDIO
    PERFORMER "Partial Arts"
    TITLE "Trauermuzik"
    INDEX 01 15:51:46
  TRACK 05 AUDIO
    PERFORMER "Rick McLelland"
    TITLE "Strung Out"
    INDEX 01 22:32:20
  TRACK 06 AUDIO
    PERFORMER "Pryda"
    TITLE "Seadweller"
    INDEX 01 29:43:23
  TRACK 07 AUDIO
    PERFORMER "Pryda"
    TITLE "Storm"
    INDEX 01 35:46:02
  TRACK 08 AUDIO
    PERFORMER "Henrik B feat. Terri"
    TITLE "Soul Heaven"
    INDEX 01 45:35:48
  TRACK 09 AUDIO
    PERFORMER "D'Mallicious"
    TITLE "Alive (Eric Prydz Edit)"
    INDEX 01 53:03:42
  TRACK 10 AUDIO
    PERFORMER "Brett Johnson"
    TITLE "It's The Underground (DJ Sneak's Subdub Mix - Eric Prydz Edit)"
    INDEX 01 58:41:62
  TRACK 11 AUDIO
    PERFORMER "Pryda"
    TITLE "Madderferrys"
    INDEX 01 65:29:07
  TRACK 12 AUDIO
    PERFORMER "Paolo Mojo"
    TITLE "Paris"
    INDEX 01 73:40:36
  TRACK 13 AUDIO
    PERFORMER "Antena"
    TITLE "Camino Del Sol (Joakim Remix)"
    INDEX 01 79:43:26
  TRACK 14 AUDIO
    PERFORMER "Sander van Doorn"
    TITLE "Grasshopper"
    INDEX 01 86:10:60
  TRACK 15 AUDIO
    PERFORMER "Pig & Dan"
    TITLE "Monjon"
    INDEX 01 91:13:13
  TRACK 16 AUDIO
    PERFORMER "Unknown Artist vs. Laurent Garnier"
    TITLE "ID vs. Flashback (Acappella)"
    INDEX 01 98:37:21
  TRACK 17 AUDIO
    PERFORMER "Josh Wink"
    TITLE "Higher State Of Consciousness (The 611 Acid Groove Mix)"
    INDEX 01 105:36:62
  TRACK 18 AUDIO
    PERFORMER "Arno Cost & Arias vs. Robin S vs. Vangelis"
    TITLE "Magenta (Eric's Bass Edit) vs. Show Me Love (Acappella) vs. Chariots Of Fire"
    INDEX 01 109:57:48
  TRACK 19 AUDIO
    PERFORMER "Pryda"
    TITLE "Genesis"
    INDEX 01 113:14:14